<mxfile host="app.diagrams.net" modified="2023-11-26T11:16:36.629Z" agent="Mozilla/5.0 (Macintosh; Intel Mac OS X 10_15_7) AppleWebKit/537.36 (KHTML, like Gecko) Chrome/119.0.0.0 Safari/537.36" version="22.0.0" etag="HpYwqPO02DjfDo1-0dZ7" type="github">
  <diagram name="Page-1" id="T0GEFyn2KUGi3ws4ob_U">
    <mxGraphModel>
      <root>
        <mxCell id="0" />
        <mxCell id="1" parent="0" />
      </root>
    </mxGraphModel>
  </diagram>
</mxfile>
